<svg width="512" height="512" viewBox="0 0 512 512" xmlns="http://www.w3.org/2000/svg">
  <!-- Background -->
  <rect x="64" y="64" width="384" height="384" rx="40" fill="#1a2634" />

  <!-- Server Stack -->
  <rect x="150" y="230" width="212" height="45" rx="4" fill="#43a047" /> <!-- Green -->
  <circle cx="175" cy="252.5" r="5" fill="#ffeb3b" />
  <rect x="200" y="247" width="10" height="11" fill="#2e7d32" />
  <rect x="215" y="247" width="10" height="11" fill="#2e7d32" />
  <rect x="230" y="247" width="10" height="11" fill="#2e7d32" />
  <rect x="300" y="247" width="35" height="11" fill="#ffffff" fill-opacity="0.8" />

  <rect x="150" y="285" width="212" height="45" rx="4" fill="#ef6c00" /> <!-- Orange -->
  <circle cx="175" cy="307.5" r="5" fill="#ffffff" fill-opacity="0.8" />
  <rect x="200" y="302" width="10" height="11" fill="#e65100" />
  <rect x="215" y="302" width="10" height="11" fill="#e65100" />
  <rect x="230" y="302" width="10" height="11" fill="#e65100" />
  <rect x="300" y="302" width="35" height="11" fill="#ffffff" fill-opacity="0.8" />

  <rect x="150" y="340" width="212" height="45" rx="4" fill="#0277bd" /> <!-- Blue -->
  <circle cx="175" cy="362.5" r="5" fill="#ffffff" fill-opacity="0.8" />
  <rect x="200" y="357" width="10" height="11" fill="#01579b" />
  <rect x="215" y="357" width="10" height="11" fill="#01579b" />
  <rect x="230" y="357" width="10" height="11" fill="#01579b" />
  <rect x="300" y="357" width="35" height="11" fill="#ffffff" fill-opacity="0.8" />

  <!-- Meal Cloche (Top Center) -->
  <path d="M200 220 L312 220 Q312 215 310 215 L202 215 Q200 215 200 220 Z" fill="#cfd8dc" />
  <path d="M200 215 A56 56 0 0 1 312 215 Z" fill="#eceff1" />
  <circle cx="256" cy="155" r="8" fill="#eceff1" />
  <path d="M246 140 Q256 120 246 100" fill="none" stroke="#ffffff" stroke-width="4" stroke-linecap="round" />
  <path d="M256 140 Q266 120 256 100" fill="none" stroke="#ffffff" stroke-width="4" stroke-linecap="round" />
  <path d="M266 140 Q276 120 266 100" fill="none" stroke="#ffffff" stroke-width="4" stroke-linecap="round" />

  <!-- Location Pin (Top Left) -->
  <path d="M120 50 A60 60 0 0 1 240 50 C240 100 180 180 180 180 C180 180 120 100 120 50 Z" fill="#c62828" stroke="#ffffff" stroke-width="8" />
  <path d="M165 80 L165 130 M165 105 L175 105 M175 80 L175 130" stroke="#ffffff" stroke-width="6" stroke-linecap="round" /> <!-- Fork icon simplified -->
  <path d="M195 80 L195 130 Q205 130 205 120 L205 80 Z" fill="#ffffff" /> <!-- Knife icon simplified -->

  <!-- Recipe Book (Middle Right) -->
  <g transform="rotate(15 380 250)">
    <rect x="330" y="180" width="100" height="120" rx="10" fill="#ef6c00" stroke="#ffffff" stroke-width="6" />
    <path d="M350 220 Q380 190 410 220 Q380 250 350 220 Z" fill="#ffffff" /> <!-- Simplified chef hat -->
    <rect x="375" y="225" width="10" height="15" rx="2" fill="#ffffff" />
  </g>

  <!-- Bot Head (Bottom Left) -->
  <path d="M50 350 A60 55 0 1 1 170 350 Q170 380 140 400 L120 410 Q120 380 120 380 A60 55 0 0 1 50 350 Z" fill="#43a047" stroke="#ffffff" stroke-width="8" />
  <circle cx="85" cy="350" r="10" fill="#ffffff" />
  <circle cx="135" cy="350" r="10" fill="#ffffff" />
  <path d="M95 375 Q110 385 125 375" fill="none" stroke="#ffffff" stroke-width="4" stroke-linecap="round" />
  <rect x="40" y="340" width="15" height="30" rx="5" fill="#43a047" stroke="#ffffff" stroke-width="4" />
  <rect x="165" y="340" width="15" height="30" rx="5" fill="#43a047" stroke="#ffffff" stroke-width="4" />

  <!-- Question Mark (Top Right) -->
  <text x="380" y="130" font-family="Arial, sans-serif" font-size="100" font-weight="bold" fill="#ffffff" transform="rotate(10 400 100)">?</text>

</svg>
